<?xml version="1.0" encoding="UTF-8"?>
<svg id="Layer_1" xmlns="http://www.w3.org/2000/svg" version="1.1" viewBox="0 0 32 32">
  <!-- Generator: Adobe Illustrator 30.2.1, SVG Export Plug-In . SVG Version: 2.1.1 Build 1)  -->
  <defs>
    <style>
      .st0 {
        fill: #f5f4f0;
      }

      .st1 {
        fill: #1a1a1a;
      }
    </style>
  </defs>
  <circle class="st1" cx="16" cy="16" r="16"/>
  <g id="LpvHeP.tif">
    <g>
      <g>
        <path class="st0" d="M31.87,16c0,8.76-7.1,15.87-15.87,15.87S.13,24.76.13,16,7.24.13,16,.13s15.87,7.1,15.87,15.87ZM31.56,16C31.56,7.41,24.59.44,16,.44S.44,7.41.44,16s6.97,15.56,15.56,15.56,15.56-6.97,15.56-15.56Z"/>
        <path class="st0" d="M16,32C7.18,32,0,24.82,0,16S7.18,0,16,0s16,7.18,16,16-7.18,16-16,16ZM16,.26C7.32.26.26,7.32.26,16s7.06,15.74,15.74,15.74,15.74-7.06,15.74-15.74S24.68.26,16,.26ZM16,31.69C7.35,31.69.31,24.65.31,16S7.35.31,16,.31s15.69,7.04,15.69,15.69-7.04,15.69-15.69,15.69ZM16,.57C7.49.57.57,7.49.57,16s6.92,15.42,15.42,15.42,15.42-6.92,15.42-15.42S24.5.57,16,.57Z"/>
      </g>
      <g>
        <g>
          <path class="st0" d="M18.43,18.7c-.14,1.25-.03,2.59,1.42,2.96l3.84,1.37c.95.34,1.56,1.06,1.84,2.06,2.29-2.45,3.55-5.57,3.59-8.89,0-.05.08-.17.13-.2.05-.03.19.13.19.19-.03,1.64-.31,3.2-.9,4.71-1.81,4.6-5.95,7.96-10.89,8.56-7.98.98-14.96-5.33-15.06-13.27,0-.05.07-.15.11-.19s.2.04.2.15c.02,3.24,1.32,6.52,3.61,8.92.25-.93.85-1.69,1.76-2.01l3.83-1.38c.88-.18,1.53-.9,1.53-1.81v-1.14c-.83-.7-1.35-1.59-1.67-2.61-.42-.09-.74-.32-.96-.66-.45-.7-.88-2.16.16-2.59-.22-1.01-.32-2-.11-3.02.5-2.43,2.67-3.93,5.12-3.98,1.26-1.62,3.44-1.47,5.01-.35.6.43,1.09.96,1.4,1.66.44.96.61,2.03.61,3.1v2.48c-.01,1.92.43,4.04,1.96,5.31.82.68,1.47.33,1.4.63-.06.28-.98,0-1.27-.18-.68-.41-1.1-1.01-1.52-1.71.34,1.45,1.64,3.44,3.44,3.11.96-.17-.69,1.23-2.33,1.18-.94-.03-1.76-.45-2.45-1.05.23.79,1.05,1.15,1.15,1.36.02.03-.12.13-.18.12-.83-.11-1.85-.58-2.48-1.22-.92-1.02-1.14-1.75-1.27-3.09-.33.56-.7,1.03-1.19,1.47h-.02ZM21.02,8.82c.8.81,1.35,1.76,1.66,2.85.29-1.2.21-2.34-.06-3.45-.32-1.32-1.18-2.36-2.42-2.9-1.15-.5-2.5-.53-3.5.41,1.57.18,2.92.98,3.79,2.27.18.26.29.59.52.82h0ZM13.14,9.3c1.56-.94,3.45-1.01,5.1-.34.62-.56.76-1.34.48-2.1l-.95-.37c-1-.39-2.03-.37-3.06-.08-2.18.61-3.61,2.57-3.46,4.84.03.51.07.98.23,1.47.16-.5.41-.94.52-1.43.18-.78.38-1.54,1.14-1.99ZM20.63,12.85c.06.04.26.01.28-.08.11-.55.21-1.3.18-1.93-.06-1.54-.75-2.92-1.98-3.83.16.82.02,1.53-.59,2.09.86.43,1.32,1.14,1.47,2.04.03.18.57,1.67.64,1.71ZM19.59,16.54c.08-.2.18-.41.22-.58.18-.83.32-1.64.43-2.48.06-.45-.03-.87-.2-1.26-.4-.94-.4-1.86-1.03-2.39-.27-.22-.59-.48-.92-.6-.62-.24-1.3-.38-1.96-.4-1.18-.03-3.24.46-3.62,1.81-.16.59-.31,1.14-.56,1.7-.12.28-.17.57-.18.88.1.93.22,1.81.45,2.7.43,1.54,1.46,2.79,2.92,3.43.63.27,1.24.22,1.86-.05,1.2-.53,2.11-1.5,2.59-2.75h0ZM26.55,20.37c-.87-.03-1.66-.2-2.36-.68-1.33-.92-2.11-2.35-2.15-3.97-.06-.88.02-1.72.24-2.58.08-.26.22-.61.18-.88-.15-1.03-.57-1.93-1.24-2.73.23,1.15.23,2.32-.06,3.47.59.65.29,1.85-.15,2.51-.03.95.04,1.89.4,2.78.1.23.3.47.44.69,1.05,1.54,2.94,2.47,4.7,1.4h0ZM25.62,19.98c-1.61-.92-2.36-2.94-2.57-4.86-.11-.99-.19-1.9-.2-2.9l-.24.88c-.48,1.77-.46,4.01.79,5.47.57.67,1.27,1.19,2.21,1.41h.01ZM11.5,13.19c-.25-.09-.51.05-.61.33-.24.7.18,2.01.98,2.27-.22-.95-.31-1.72-.37-2.6ZM21.21,13.85c0-.39-.26-.71-.65-.7-.07.88-.19,1.7-.37,2.62.73-.2,1.02-1.26,1.02-1.92ZM22.59,21.01l-.53-.91c-.94-1.21-1.37-2.66-1.37-4.23-.18.07-.37.13-.55.24s-.23.5-.23.72c-.02,1.94.9,3.59,2.68,4.19h0ZM19.43,21.84c-1.22-.54-1.38-1.61-1.34-2.82-1.73,1.08-2.43,1.08-4.14,0,.06,1.28-.14,2.25-1.35,2.82.34.68.88,1.14,1.55,1.46,1.77.84,4.3.4,5.27-1.46h.01ZM20.34,22.17l-.63-.23c-1.12,2.17-4.15,2.64-6.16,1.36-.55-.35-.94-.76-1.22-1.36l-.67.23c1.19,2.29,4,3.01,6.28,2.14,1.06-.4,1.9-1.14,2.39-2.14h.01ZM6.79,25.37c.99,1.02,2.03,1.74,3.22,2.4,5.11,2.67,11.15,1.68,15.25-2.4-.16-.98-.79-1.75-1.73-2.09l-2.89-1.03c-.5,1-1.3,1.77-2.33,2.22-1.61.7-3.43.62-4.97-.2-.83-.48-1.49-1.11-1.93-2.02l-3,1.08c-.89.32-1.49,1.12-1.61,2.03h-.01Z"/>
          <path class="st0" d="M16.04,29.69c-3.23,0-6.4-1.18-8.88-3.34-2.94-2.57-4.66-6.27-4.71-10.15,0-.12.14-.27.14-.28.05-.06.13-.07.22-.03.1.04.21.13.21.27.02,3.18,1.26,6.32,3.42,8.67.31-.92.94-1.58,1.78-1.88l3.85-1.38c.85-.18,1.42-.85,1.43-1.68v-1.08c-.75-.65-1.29-1.49-1.64-2.56-.41-.11-.74-.34-.97-.7-.35-.54-.64-1.42-.44-2.07.09-.3.28-.53.56-.67-.25-1.16-.27-2.08-.09-2.97.49-2.37,2.57-4.01,5.19-4.08,1.35-1.67,3.61-1.43,5.16-.32.67.48,1.14,1.04,1.45,1.71.41.91.62,1.97.62,3.16v2.48c-.01,1.64.32,3.88,1.91,5.21.44.37.82.41,1.08.44.15.02.27.03.34.13.04.05.05.12.03.2-.02.08-.08.15-.16.18-.32.13-1.06-.13-1.31-.27-.39-.24-.7-.53-.98-.88.56,1.17,1.62,2.29,2.94,2.05.13-.02.32-.04.4.08.03.04.07.12,0,.25-.21.4-1.5,1.15-2.72,1.11-.7-.02-1.39-.26-2.05-.71.17.22.38.38.56.52.16.12.27.21.31.31.01.02.03.09-.02.16-.05.07-.19.16-.3.14-.91-.12-1.93-.63-2.56-1.26-.86-.96-1.13-1.68-1.27-2.79-.29.43-.6.8-.98,1.14-.17,1.64.24,2.49,1.32,2.76h.01l3.84,1.38c.89.32,1.53.98,1.85,1.92,2.19-2.42,3.36-5.4,3.4-8.64,0-.11.12-.26.19-.31.03-.02.1-.05.19,0s.2.19.2.3c-.03,1.72-.33,3.28-.91,4.75-1.85,4.73-6.07,8.04-10.99,8.65-.54.07-1.08.1-1.62.1v-.02ZM2.71,16.2c.05,3.8,1.73,7.43,4.62,9.95,2.84,2.48,6.59,3.64,10.29,3.18,4.83-.6,8.96-3.85,10.78-8.48.57-1.44.86-2.96.89-4.65,0-.01-.02-.03-.03-.04-.01.02-.02.03-.02.04-.04,3.33-1.33,6.51-3.63,8.97l-.16.17-.06-.23c-.27-.99-.87-1.65-1.76-1.97l-3.84-1.37c-1.61-.41-1.63-1.97-1.51-3.1v-.05l.04-.03c.46-.41.83-.87,1.17-1.43l.21-.35.04.4c.13,1.3.33,2.01,1.24,3.02.58.58,1.54,1.05,2.38,1.18-.05-.04-.11-.1-.17-.14-.3-.24-.75-.59-.92-1.16l-.13-.43.34.29c.76.65,1.55.99,2.37,1.02,1.14.03,2.25-.66,2.45-.93-.02,0-.06,0-.1.01-.85.15-1.68-.17-2.38-.93-.56-.6-1.01-1.46-1.2-2.28l-.19-.82.43.72c.45.74.85,1.28,1.48,1.66.27.16.85.31,1.03.27-.03,0-.07,0-.1-.01-.27-.03-.71-.08-1.21-.5-1.67-1.39-2.02-3.71-2.01-5.41v-2.48c.01-1.15-.19-2.17-.59-3.05-.29-.63-.73-1.15-1.36-1.6-1.46-1.05-3.59-1.28-4.83.32l-.04.05h-.06c-2.52.05-4.53,1.61-5,3.87-.18.87-.15,1.79.11,2.96l.02.11-.1.04c-.26.11-.43.29-.51.55-.17.54.08,1.34.4,1.85.21.32.5.52.88.61l.07.02.02.07c.34,1.08.87,1.91,1.64,2.55l.05.04v1.21c-.02.96-.67,1.73-1.64,1.94l-3.82,1.37c-.82.3-1.42.98-1.68,1.92l-.06.23-.16-.17c-2.3-2.41-3.63-5.69-3.65-9.01h0s-.03.04-.03.06v-.03ZM26.43,18.67h0ZM29.25,16.21h0ZM29.3,16.21h0ZM2.71,16.21h0ZM16,29.4c-2.09,0-4.15-.51-6.06-1.51-1.35-.75-2.35-1.49-3.25-2.42l-.04-.05v-.06c.14-.99.78-1.8,1.7-2.14l3.11-1.12.05.11c.4.83,1,1.45,1.87,1.96,1.51.8,3.28.87,4.85.19,1-.44,1.79-1.18,2.27-2.16l.05-.11,3,1.07c.97.35,1.65,1.16,1.81,2.19v.07l-.04.05c-2.03,2.03-4.56,3.33-7.31,3.77-.68.11-1.35.16-2.03.16h.02ZM6.93,25.33c.87.89,1.84,1.61,3.14,2.33,2.47,1.29,5.21,1.75,7.92,1.32,2.67-.43,5.14-1.69,7.12-3.65-.17-.91-.76-1.61-1.63-1.92l-2.78-.99c-.51.98-1.32,1.73-2.35,2.18-1.65.71-3.5.64-5.09-.2-.88-.51-1.51-1.15-1.93-1.97l-2.89,1.04c-.81.29-1.38,1-1.51,1.86ZM16,24.8c-.56,0-1.11-.08-1.64-.25-1.24-.39-2.24-1.21-2.81-2.32l-.07-.14.92-.32.05.11c.26.55.62.95,1.17,1.3,1.03.66,2.37.86,3.59.53,1.07-.29,1.91-.94,2.38-1.84l.05-.1.88.32-.06.13c-.5,1.02-1.35,1.78-2.46,2.21-.64.24-1.32.37-2,.37ZM11.86,22.24c.55.98,1.46,1.7,2.58,2.05,1.12.35,2.35.31,3.47-.11,1-.38,1.78-1.05,2.25-1.94l-.39-.14c-.51.92-1.39,1.58-2.49,1.87-1.29.35-2.71.13-3.8-.57-.56-.36-.94-.76-1.22-1.3l-.41.14h0ZM16.03,23.84c-.67,0-1.34-.14-1.93-.42-.75-.35-1.27-.85-1.61-1.52l-.06-.12.12-.06c1.14-.53,1.33-1.42,1.27-2.69v-.25l.2.14c1.67,1.05,2.31,1.05,4,0l.21-.13v.25c-.06,1.26.14,2.2,1.25,2.69l.13.06-.07.12c-.47.9-1.33,1.54-2.42,1.81-.36.09-.73.13-1.1.13h.01ZM12.79,21.9c.31.56.78.98,1.42,1.28,2.03.97,4.2.12,5.03-1.28-1.11-.56-1.3-1.58-1.29-2.64-1.55.93-2.32.93-3.86,0,.02,1.17-.23,2.08-1.3,2.64ZM22.88,21.25l-.34-.11c-1.76-.6-2.8-2.21-2.77-4.32,0-.2.04-.68.29-.83.17-.1.34-.16.51-.22l.24-.09v.19c0,1.6.45,2.99,1.34,4.15h0l.71,1.23h.02ZM20.55,16.06c-.12.05-.24.09-.35.16-.09.05-.16.31-.16.61-.02,1.84.81,3.28,2.24,3.93l-.34-.58c-.89-1.15-1.36-2.53-1.39-4.11h0ZM24.98,20.96c-1.31,0-2.5-.86-3.23-1.92-.04-.06-.08-.11-.12-.17-.13-.17-.26-.35-.33-.54-.32-.79-.45-1.69-.41-2.83v-.04l.02-.03c.39-.59.71-1.74.16-2.34l-.05-.05.02-.07c.28-1.08.3-2.23.06-3.41l-.11-.52.34.41c.7.84,1.11,1.76,1.27,2.8.04.27-.06.56-.15.82-.01.04-.03.08-.04.12-.21.83-.29,1.66-.24,2.53.04,1.57.8,2.98,2.09,3.87.47.32,1.02.52,1.69.61l-.37-.09c-.87-.2-1.62-.68-2.28-1.45-.6-.7-.96-1.6-1.07-2.69-.12-1.16.07-2.22.26-2.9l.49-1.81v.96c.02.97.09,1.86.2,2.89.24,2.25,1.15,3.99,2.5,4.76l.64.37c.08,0,.15,0,.23.01l.44.02-.38.23c-.55.34-1.11.48-1.65.48l.02-.02ZM21.15,15.55c-.04,1.09.09,1.94.39,2.69.06.16.19.32.3.49.04.06.09.12.13.18.88,1.29,2.49,2.26,4.11,1.58-.78-.08-1.41-.3-1.95-.67-1.36-.94-2.17-2.42-2.21-4.07-.06-.89.02-1.75.25-2.61.02-.05.03-.09.04-.13.08-.23.17-.49.14-.7-.12-.82-.41-1.55-.88-2.24.14,1.01.09,1.99-.14,2.92.26.32.36.77.3,1.3-.05.44-.22.92-.46,1.28l-.02-.02ZM22.75,13.12v.02c-.45,1.64-.48,3.9.76,5.35.41.48.84.83,1.32,1.07-1.02-.95-1.7-2.5-1.9-4.41-.08-.72-.14-1.36-.17-2.02h-.01ZM15.99,19.65c-.31,0-.61-.06-.9-.19-1.46-.63-2.55-1.91-2.99-3.51-.24-.93-.36-1.85-.46-2.72h0v-.02c.01-.38.07-.67.19-.93.23-.52.37-1.03.52-1.57l.03-.11c.38-1.37,2.42-1.94,3.75-1.91.66.02,1.35.16,2.01.41.35.13.68.39.95.62.44.37.59.91.75,1.49.09.31.18.63.31.95.19.45.27.9.21,1.33-.1.81-.24,1.63-.43,2.5-.03.13-.09.28-.15.42-.03.06-.05.13-.08.19h0c-.5,1.28-1.44,2.28-2.66,2.82-.37.16-.72.24-1.06.24h0ZM11.9,13.21c.1.85.21,1.76.45,2.67.42,1.52,1.46,2.74,2.84,3.34.56.24,1.13.23,1.75-.05,1.17-.52,2.05-1.44,2.52-2.68h0c.03-.07.05-.13.08-.2.06-.13.11-.26.13-.37.19-.86.32-1.67.42-2.47.05-.39-.01-.78-.19-1.2-.14-.34-.24-.66-.33-.98-.16-.56-.29-1.04-.67-1.36-.26-.22-.57-.46-.88-.58-.63-.24-1.3-.38-1.92-.39-1.24-.03-3.15.48-3.49,1.72l-.03.11c-.15.55-.29,1.07-.54,1.61-.1.23-.15.48-.16.82h.02ZM12.05,15.99l-.22-.07c-.34-.11-.65-.41-.86-.84-.26-.53-.34-1.17-.2-1.6.06-.17.17-.31.33-.38.11-.05.23-.07.35-.05l-.09-.29c-.16-.49-.2-.95-.23-1.5-.15-2.3,1.31-4.35,3.56-4.98,1.14-.32,2.17-.29,3.14.08l1.01.39.02.06c.32.86.13,1.68-.51,2.25l-.06.05-.08-.03c-1.68-.68-3.5-.56-4.99.33l-.07-.11.07.11c-.69.41-.89,1.08-1.08,1.91-.07.29-.18.57-.29.83-.08.19-.16.39-.23.6l-.1.3s.02,0,.03.01l.08.03v.09c.06.85.15,1.61.37,2.58,0,0,.05.23.05.23ZM11.35,13.3s-.09.01-.14.03c-.09.04-.16.12-.19.23-.12.36-.05.94.18,1.4.13.26.29.46.48.59-.19-.87-.26-1.6-.31-2.25h-.03.01ZM16.19,6.32c-.46,0-.94.07-1.44.21-2.12.59-3.51,2.53-3.37,4.71.02.38.05.71.12,1.04.03-.07.06-.15.09-.22.11-.27.22-.53.28-.79.17-.74.37-1.58,1.21-2.08h0c1.54-.92,3.41-1.06,5.14-.38.49-.48.64-1.15.4-1.85l-.9-.35c-.49-.19-1-.29-1.53-.29ZM20.01,15.95l.04-.21c.19-.98.31-1.79.37-2.6v-.12h.13c.2,0,.4.07.54.21.16.15.25.38.25.62,0,.67-.31,1.82-1.12,2.04,0,0-.21.06-.21.06ZM20.68,13.29c-.06.71-.16,1.42-.32,2.25.49-.31.71-1.13.71-1.7h0c0-.17-.06-.33-.17-.43-.06-.06-.14-.11-.23-.12h.01ZM20.71,13c-.06,0-.11-.01-.15-.04-.15-.1-.69-1.79-.69-1.8-.15-.92-.61-1.56-1.39-1.94l-.17-.09.14-.13c.53-.49.71-1.13.55-1.97l-.07-.34.28.2c1.25.92,1.97,2.32,2.03,3.94.03.73-.11,1.54-.19,1.96-.01.08-.07.14-.16.17-.05.02-.11.03-.17.03h-.01ZM18.75,9.06c.76.43,1.22,1.12,1.38,2.05.03.16.47,1.38.59,1.62.02,0,.05,0,.07-.01.08-.41.2-1.19.18-1.88-.06-1.42-.65-2.66-1.67-3.53.07.71-.11,1.28-.55,1.75ZM20.69,12.73h0ZM22.7,12.18l-.14-.48c-.31-1.07-.86-2.01-1.63-2.79-.15-.16-.26-.35-.36-.53-.06-.11-.11-.21-.17-.3-.85-1.25-2.16-2.04-3.7-2.21l-.28-.03.21-.2c.93-.88,2.26-1.04,3.64-.44,1.27.55,2.16,1.61,2.49,2.99.3,1.25.32,2.4.06,3.51l-.12.49h0ZM17.02,5.64c1.49.24,2.76,1.05,3.59,2.29.07.1.13.21.19.32.1.18.19.35.31.47h0c.69.7,1.2,1.51,1.54,2.42.15-.92.1-1.87-.15-2.9-.31-1.29-1.14-2.28-2.34-2.81-1.17-.51-2.3-.44-3.14.2h0Z"/>
        </g>
        <g>
          <g>
            <path class="st0" d="M18.39,13.19c0,.24.01.44-.07.55-.11.14-.38.16-.5.09-.2-.11-.21-.32-.2-.59l-.4.33s-.18.03-.21-.01c-.13-.18.56-.77,1.14-.7s1.16.57.87.64c-.05.01-.16,0-.2-.03l-.43-.27h0Z"/>
            <path class="st0" d="M18,13.91c-.08,0-.15-.02-.2-.04-.2-.11-.23-.31-.23-.54l-.32.27s-.11.04-.16.03c-.04,0-.08-.02-.11-.05-.03-.04-.05-.1.02-.21.15-.26.69-.61,1.16-.56.46.05.97.4.99.6,0,.03,0,.1-.11.13-.06.01-.18,0-.24-.04l-.36-.23v.05c0,.19,0,.35-.08.44-.08.1-.23.15-.35.15h0ZM17.67,13.14v.09c0,.28,0,.46.18.55.1.06.34.04.44-.08.06-.07.06-.21.06-.39v-.21l.5.31s.13.04.17.03c.05-.01.04-.03.04-.04,0-.13-.45-.47-.91-.52-.42-.05-.94.28-1.08.52-.03.05-.04.1-.02.12.02.02.12.03.14,0l.47-.39h.01Z"/>
          </g>
          <g>
            <path class="st0" d="M14.42,13.24c.02.21,0,.37-.08.48-.14.17-.44.16-.54.06-.16-.16-.16-.33-.11-.58l-.49.27s-.17.01-.2-.03,0-.16.04-.19c.58-.55,1.38-.55,1.91.05.04.04.1.15.1.2,0,.07-.17.1-.23.06l-.41-.32h0Z"/>
            <path class="st0" d="M14.02,13.9c-.11,0-.2-.03-.26-.08-.15-.15-.17-.31-.14-.53l-.41.23c-.06.04-.21.02-.26-.04-.05-.07,0-.21.05-.25.3-.29.67-.43,1.04-.42.36.02.68.18.94.47.04.05.11.16.11.22,0,.02,0,.06-.06.09s-.18.05-.24,0l-.33-.26c.01.19-.02.31-.1.41-.07.09-.19.14-.32.15h-.03.01ZM13.74,13.11l-.02.09c-.04.24-.04.4.1.54.04.04.13.06.22.06.11,0,.2-.05.26-.12.07-.09.09-.22.07-.44v-.1l.48.38s.04.01.09,0c.04,0,.06-.02.07-.03,0-.03-.06-.13-.09-.17-.24-.27-.55-.43-.88-.44-.34-.02-.69.12-.97.39-.03.03-.05.12-.04.14.02.02.11.03.15.01l.57-.32h0Z"/>
          </g>
          <g>
            <path class="st0" d="M17.31,16.9c-1.17.67-2.7.23-2.7-.11,0-.06.16-.1.22-.07.49.23,1.03.27,1.57.2.74-.09.77-.41,1.01-.25.05.03-.05.2-.1.23Z"/>
            <path class="st0" d="M15.92,17.38c-.5,0-.93-.11-1.18-.26-.17-.1-.26-.21-.26-.33,0-.04.01-.11.1-.16.08-.05.22-.08.31-.04.41.2.9.26,1.49.19.36-.04.53-.14.66-.21s.26-.14.44-.03c.05.03.08.08.08.15,0,.1-.09.26-.18.31h0c-.47.27-.99.37-1.46.37h0ZM14.79,16.84s.09.06.18.1c.44.19,1.44.31,2.26-.16l.02-.02s-.05.02-.09.05c-.14.08-.34.19-.75.24-.63.07-1.16,0-1.61-.2h-.01ZM17.24,16.78h0Z"/>
          </g>
          <g>
            <path class="st0" d="M19.24,12.09c-.11.31-.51-.39-1.97.04-.05.02-.16-.02-.2-.04-.05-.03.03-.2.08-.22.94-.41,2.19-.12,2.08.21h.01Z"/>
            <path class="st0" d="M19.14,12.3c-.08,0-.16-.03-.24-.05-.26-.09-.73-.25-1.6.01-.11.03-.26-.02-.3-.05-.03-.02-.08-.06-.08-.17,0-.09.08-.24.18-.29.82-.36,1.86-.21,2.16.07.1.09.13.2.1.31h0c-.04.13-.13.17-.22.17ZM18.18,11.85c.38,0,.64.09.81.14.04.01.08.03.11.03-.01-.02-.05-.04-.11-.07-.33-.16-1.12-.24-1.77.03h0s.02.01.02.01c.38-.11.69-.15.94-.15h0Z"/>
          </g>
          <g>
            <path class="st0" d="M14.84,12.18c-.58-.26-1.26-.28-1.85-.01-.81-.28,1.21-.86,1.99-.18.04.03-.07.13-.14.19Z"/>
            <path class="st0" d="M14.86,12.33l-.08-.03c-.55-.25-1.2-.25-1.74-.01l-.05.02-.05-.02c-.18-.06-.27-.15-.28-.26,0-.12.07-.22.24-.3.43-.21,1.57-.35,2.16.15.03.03.05.07.05.11,0,.09-.07.17-.19.28,0,0-.06.06-.06.06ZM12.95,12.01s.02,0,.03.02c.57-.24,1.24-.24,1.83,0h0c-.36-.24-.94-.25-1.35-.18-.29.05-.45.12-.51.17h0Z"/>
          </g>
          <g>
            <path class="st0" d="M16.6,15.65c-.42.28-1.2.21-1.25-.17,0-.06.18-.11.23-.07.47.38.87-.14,1.08.03.04.03-.01.18-.06.21Z"/>
            <path class="st0" d="M15.98,15.95c-.17,0-.33-.03-.46-.09-.17-.08-.28-.21-.3-.37,0-.03,0-.12.11-.18.09-.05.25-.08.34,0,.23.18.42.11.62.03.15-.06.32-.12.46,0,.03.02.07.07.07.16s-.06.22-.13.27h0c-.19.12-.45.19-.69.19h-.02ZM16.52,15.54s-.1.03-.14.05c-.1.04-.23.09-.37.1.18,0,.37-.05.52-.14h-.01ZM15.51,15.53s.07.07.12.09c.06.03.14.05.22.06-.11-.02-.22-.06-.33-.15h-.01Z"/>
          </g>
          <g>
            <path class="st0" d="M16.48,17.81c-.29.14-.92.19-1.02-.14-.07-.22.37.02.85-.06l.15-.03s.06.21.02.23Z"/>
            <path class="st0" d="M15.96,18.05c-.13,0-.26-.02-.36-.06-.13-.06-.22-.15-.26-.27-.03-.1,0-.16.03-.2.08-.09.2-.07.37-.05.16.02.35.05.55.01l.15-.03c.06-.01.14.01.18.12.02.05.06.29-.08.35h0c-.15.07-.37.12-.58.12h0ZM15.66,17.72s.02.01.04.02c.13.06.35.05.53.01-.2.02-.39,0-.53-.03h-.04ZM16.49,17.71h0Z"/>
          </g>
        </g>
      </g>
    </g>
  </g>
</svg>