<?xml version="1.0" encoding="UTF-8"?>
<svg id="Layer_1" xmlns="http://www.w3.org/2000/svg" version="1.1" viewBox="0 0 160 160">
  <!-- Generator: Adobe Illustrator 30.2.1, SVG Export Plug-In . SVG Version: 2.1.1 Build 1)  -->
  <defs>
    <style>
      .st0 {
        fill: #1a1a1a;
      }
    </style>
  </defs>
  <g id="LpvHeP.tif">
    <g>
      <g>
        <path class="st0" d="M159.34,80c0,43.82-35.52,79.34-79.34,79.34S.66,123.82.66,80,36.18.66,80,.66s79.34,35.52,79.34,79.34ZM157.78,79.99C157.78,37.03,122.95,2.2,79.99,2.2S2.21,37.03,2.21,79.99s34.83,77.79,77.79,77.79,77.79-34.83,77.79-77.79Z"/>
        <path class="st0" d="M80,160C35.89,160,0,124.11,0,80S35.89,0,80,0s80,35.89,80,80-35.89,80-80,80ZM80,1.32C36.62,1.32,1.32,36.62,1.32,80s35.29,78.68,78.68,78.68,78.68-35.29,78.68-78.68S123.38,1.32,80,1.32ZM79.99,158.44C36.74,158.44,1.55,123.25,1.55,79.99S36.74,1.54,79.99,1.54s78.45,35.19,78.45,78.45-35.19,78.45-78.45,78.45ZM79.99,2.87C37.47,2.87,2.87,37.46,2.87,79.99s34.6,77.12,77.12,77.12,77.12-34.6,77.12-77.12S122.52,2.87,79.99,2.87Z"/>
      </g>
      <g>
        <g>
          <path class="st0" d="M92.14,93.5c-.68,6.26-.17,12.94,7.08,14.78l19.21,6.87c4.76,1.7,7.81,5.3,9.19,10.29,11.45-12.26,17.76-27.84,17.96-44.47,0-.27.41-.84.63-.98.27-.16.95.63.95.95-.15,8.18-1.54,15.98-4.5,23.54-9.03,23.02-29.77,39.78-54.43,42.82-39.88,4.91-74.81-26.67-75.31-66.34,0-.25.36-.75.53-.93s1.01.18,1.02.74c.1,16.2,6.58,32.59,18.06,44.62,1.27-4.63,4.27-8.43,8.82-10.07l19.14-6.88c4.4-.92,7.63-4.5,7.67-9.06l.05-5.72c-4.18-3.49-6.8-7.97-8.39-13.05-2.09-.46-3.71-1.6-4.82-3.31-2.26-3.48-4.38-10.82.82-12.96-1.11-5.04-1.61-9.99-.56-15.08,2.51-12.14,13.33-19.65,25.61-19.89,6.31-8.12,17.21-7.37,25.07-1.73,3,2.15,5.43,4.81,7.01,8.28,2.2,4.82,3.05,10.13,3.03,15.5l-.04,12.41c-.03,9.61,2.19,20.19,9.82,26.54,4.09,3.41,7.36,1.65,7.01,3.17-.32,1.38-4.89.02-6.37-.88-3.39-2.07-5.52-5.04-7.62-8.53,1.7,7.24,8.21,17.18,17.18,15.57,4.8-.86-3.44,6.13-11.65,5.88-4.72-.14-8.79-2.26-12.26-5.24,1.16,3.93,5.25,5.73,5.73,6.79.08.17-.59.63-.9.59-4.14-.56-9.24-2.9-12.42-6.11-4.61-5.12-5.69-8.74-6.35-15.47-1.65,2.8-3.52,5.15-5.97,7.33ZM105.1,44.09c3.98,4.04,6.74,8.81,8.32,14.24,1.43-5.98,1.07-11.69-.28-17.24-1.61-6.62-5.89-11.78-12.08-14.48-5.75-2.51-12.49-2.67-17.5,2.06,7.84.88,14.62,4.92,18.97,11.34.88,1.31,1.47,2.95,2.58,4.08ZM65.72,46.49c7.82-4.68,17.27-5.06,25.51-1.71,3.12-2.78,3.79-6.7,2.38-10.52l-4.76-1.85c-5.01-1.95-10.14-1.83-15.28-.4-10.88,3.04-18.06,12.87-17.31,24.22.17,2.53.35,4.88,1.14,7.35.8-2.5,2.03-4.71,2.59-7.13.92-3.92,1.92-7.69,5.72-9.97ZM103.15,64.25c.28.19,1.3.06,1.4-.41.53-2.75,1.03-6.48.92-9.65-.31-7.68-3.73-14.6-9.91-19.17.82,4.1.11,7.67-2.93,10.46,4.32,2.13,6.59,5.68,7.33,10.21.15.92,2.87,8.36,3.19,8.57ZM97.93,82.68c.39-1,.92-2.03,1.11-2.92.9-4.16,1.6-8.18,2.13-12.42.28-2.23-.17-4.35-1.01-6.32-2.02-4.71-2.01-9.29-5.15-11.93-1.33-1.12-2.95-2.38-4.58-3-3.12-1.2-6.49-1.92-9.82-2-5.89-.14-16.22,2.29-18.08,9.07-.81,2.96-1.53,5.68-2.79,8.48-.62,1.38-.83,2.86-.88,4.41.52,4.64,1.1,9.04,2.27,13.5,2.14,7.69,7.29,13.95,14.58,17.13,3.15,1.37,6.21,1.11,9.28-.25,6-2.65,10.54-7.48,12.96-13.75ZM132.77,101.85c-4.33-.15-8.3-.99-11.8-3.4-6.66-4.59-10.54-11.74-10.76-19.83-.28-4.38.1-8.6,1.21-12.89.42-1.32,1.12-3.03.91-4.42-.76-5.13-2.85-9.63-6.18-13.66,1.17,5.73,1.17,11.6-.32,17.33,2.93,3.23,1.44,9.27-.74,12.53-.17,4.73.2,9.47,2,13.89.48,1.17,1.48,2.37,2.2,3.43,5.23,7.68,14.69,12.36,23.48,7.01ZM128.11,99.88c-8.03-4.59-11.81-14.72-12.84-24.28-.53-4.94-.94-9.51-.98-14.51l-1.19,4.4c-2.39,8.83-2.29,20.07,3.94,27.33,2.86,3.33,6.34,5.95,11.07,7.06ZM57.49,65.97c-1.25-.44-2.57.26-3.03,1.63-1.18,3.48.89,10.04,4.88,11.37-1.12-4.74-1.56-8.61-1.85-13ZM106.04,69.26c.01-1.93-1.3-3.54-3.25-3.5-.34,4.42-.97,8.52-1.87,13.09,3.63-.99,5.1-6.29,5.12-9.59ZM112.93,105.07l-2.67-4.57c-4.7-6.05-6.87-13.32-6.85-21.14-.92.34-1.86.66-2.74,1.18s-1.13,2.52-1.15,3.59c-.12,9.69,4.51,17.94,13.41,20.95ZM97.13,109.19c-6.1-2.72-6.9-8.07-6.68-14.09-8.63,5.38-12.14,5.38-20.69,0,.29,6.38-.68,11.27-6.73,14.1,1.71,3.39,4.4,5.71,7.74,7.3,8.85,4.2,21.48,2,26.34-7.3ZM101.71,110.83l-3.16-1.16c-5.61,10.84-20.76,13.22-30.78,6.79-2.74-1.76-4.69-3.81-6.11-6.78l-3.33,1.16c5.93,11.45,20.01,15.03,31.42,10.7,5.29-2.01,9.52-5.72,11.97-10.71ZM33.93,126.87c4.97,5.12,10.15,8.7,16.1,12,25.53,13.37,55.77,8.41,76.23-11.99-.78-4.88-3.94-8.76-8.64-10.43l-14.47-5.15c-2.48,5.01-6.49,8.83-11.67,11.09-8.04,3.48-17.14,3.12-24.87-.99-4.17-2.42-7.44-5.57-9.63-10.1l-15,5.42c-4.43,1.6-7.46,5.6-8.04,10.14Z"/>
          <path class="st0" d="M80.19,148.47c-16.16,0-31.98-5.89-44.39-16.72-14.72-12.85-23.31-31.36-23.55-50.77,0-.61.68-1.36.71-1.39.26-.28.67-.33,1.12-.15.48.19,1.03.65,1.04,1.34.1,15.89,6.32,31.62,17.1,43.34,1.56-4.58,4.68-7.89,8.89-9.4l19.23-6.91c4.24-.88,7.11-4.26,7.14-8.42l.05-5.41c-3.8-3.25-6.51-7.45-8.24-12.8-2.07-.54-3.7-1.72-4.86-3.51-1.76-2.71-3.19-7.11-2.18-10.35.47-1.51,1.41-2.63,2.8-3.35-1.23-5.81-1.37-10.4-.45-14.83,2.45-11.86,12.85-20.03,25.93-20.41,6.74-8.37,18.03-7.17,25.79-1.62,3.33,2.38,5.69,5.18,7.23,8.54,2.07,4.53,3.11,9.84,3.09,15.78l-.04,12.41c-.03,8.22,1.62,19.4,9.58,26.03,2.21,1.84,4.12,2.07,5.38,2.22.76.09,1.36.16,1.7.63.19.27.24.6.15.98-.1.41-.38.73-.81.91-1.58.66-5.32-.63-6.54-1.37-1.94-1.18-3.5-2.66-4.9-4.41,2.79,5.83,8.11,11.43,14.69,10.24.65-.12,1.58-.2,2.01.39.14.2.34.62,0,1.25-1.06,2.01-7.52,5.74-13.58,5.56-3.52-.1-6.96-1.29-10.25-3.54.86,1.09,1.92,1.92,2.78,2.6.78.62,1.34,1.06,1.56,1.55.06.12.15.45-.12.81-.25.34-.93.78-1.48.71-4.53-.62-9.67-3.15-12.8-6.3-4.32-4.79-5.63-8.41-6.33-13.97-1.44,2.16-3.02,4-4.89,5.69-.84,8.18,1.2,12.44,6.61,13.82l.06.02,19.21,6.87c4.47,1.6,7.65,4.91,9.26,9.62,10.94-12.1,16.81-27,17.01-43.18,0-.55.58-1.31.95-1.53.13-.08.48-.23.95.03.43.25,1.02.93,1.01,1.5-.16,8.61-1.65,16.38-4.55,23.77-9.27,23.63-30.33,40.2-54.97,43.23-2.7.33-5.41.5-8.11.5ZM13.57,81.02c.26,19.02,8.67,37.14,23.1,49.74,14.19,12.39,32.95,18.18,51.47,15.9,24.15-2.98,44.81-19.23,53.9-42.41,2.83-7.22,4.29-14.82,4.45-23.24-.03-.05-.08-.13-.13-.19-.05.08-.1.16-.12.22-.21,16.64-6.65,32.57-18.14,44.87l-.8.86-.32-1.14c-1.37-4.94-4.33-8.25-8.78-9.85l-19.18-6.86c-8.05-2.07-8.16-9.83-7.54-15.49l.03-.25.19-.17c2.3-2.05,4.16-4.33,5.84-7.17l1.03-1.74.2,2.01c.64,6.51,1.64,10.04,6.18,15.09,2.89,2.91,7.68,5.27,11.91,5.88-.24-.22-.57-.48-.86-.71-1.49-1.18-3.73-2.95-4.58-5.82l-.64-2.15,1.7,1.46c3.78,3.25,7.77,4.96,11.85,5.08,5.7.16,11.24-3.29,12.24-4.63-.12,0-.28.02-.49.06-4.25.76-8.38-.85-11.92-4.67-2.81-3.02-5.06-7.28-6.02-11.4l-.96-4.11,2.17,3.61c2.23,3.7,4.24,6.38,7.39,8.31,1.33.81,4.25,1.54,5.17,1.35-.16-.02-.34-.05-.5-.06-1.33-.16-3.56-.42-6.07-2.51-8.36-6.96-10.09-18.56-10.06-27.06l.04-12.41c.02-5.75-.98-10.87-2.97-15.23-1.44-3.15-3.66-5.77-6.8-8.02-7.31-5.24-17.96-6.38-24.17,1.6l-.19.25h-.32c-12.6.25-22.63,8.04-24.98,19.37-.9,4.37-.73,8.94.56,14.8l.12.54-.51.21c-1.28.53-2.14,1.45-2.54,2.75-.85,2.71.38,6.7,2.02,9.24,1.03,1.59,2.52,2.61,4.41,3.03l.37.08.11.37c1.69,5.39,4.37,9.56,8.18,12.75l.24.2-.05,6.03c-.04,4.78-3.31,8.67-8.15,9.69l-19.1,6.86c-4.12,1.48-7.11,4.9-8.4,9.62l-.31,1.13-.81-.84c-11.49-12.04-18.14-28.46-18.24-45.07,0,0-.03-.03-.06-.05-.07.11-.14.21-.16.28ZM132.14,93.35s0,.02,0,.03c0,0,0,0,0,0-.01,0-.01-.02-.01-.02ZM146.24,81.05h0ZM146.51,81.04h0ZM13.57,81.04h0ZM80,147c-10.43,0-20.74-2.55-30.28-7.54-6.74-3.74-11.75-7.47-16.26-12.12l-.22-.23.04-.32c.64-4.93,3.88-9.02,8.48-10.68l15.57-5.62.26.54c2.01,4.15,4.98,7.27,9.37,9.81,7.55,4.01,16.4,4.36,24.27.95,5-2.19,8.93-5.92,11.34-10.78l.26-.53,15.02,5.35c4.86,1.73,8.25,5.82,9.07,10.95l.05.33-.24.24c-10.17,10.14-22.81,16.65-36.57,18.84-3.38.54-6.77.81-10.15.81ZM34.63,126.64c4.36,4.44,9.22,8.04,15.72,11.65,12.35,6.47,26.05,8.75,39.59,6.59,13.37-2.13,25.68-8.43,35.61-18.23-.84-4.55-3.79-8.03-8.15-9.58l-13.92-4.96c-2.57,4.89-6.61,8.65-11.73,10.88-8.24,3.57-17.52,3.2-25.44-1.01-4.39-2.55-7.55-5.77-9.65-9.86l-14.45,5.22c-4.03,1.45-6.9,5-7.57,9.29ZM80,123.99c-2.78,0-5.55-.41-8.21-1.25-6.19-1.94-11.18-6.06-14.05-11.59l-.35-.68,4.61-1.61.26.53c1.31,2.73,3.12,4.74,5.87,6.5,5.15,3.3,11.86,4.3,17.95,2.67,5.33-1.43,9.55-4.69,11.88-9.2l.27-.52,4.4,1.62-.32.66c-2.5,5.1-6.76,8.92-12.32,11.03-3.21,1.22-6.6,1.83-9.99,1.83ZM59.28,111.21c2.75,4.88,7.31,8.51,12.9,10.27,5.6,1.76,11.76,1.56,17.33-.56,5-1.9,8.89-5.25,11.27-9.72l-1.93-.71c-2.55,4.58-6.95,7.89-12.44,9.36-6.45,1.73-13.56.67-19.01-2.83-2.79-1.79-4.68-3.82-6.08-6.52l-2.05.71ZM80.13,119.2c-3.36,0-6.69-.72-9.63-2.11-3.73-1.77-6.37-4.26-8.05-7.6l-.31-.61.62-.29c5.68-2.66,6.64-7.12,6.35-13.47l-.06-1.26,1.07.68c8.36,5.27,11.53,5.27,19.98,0l1.06-.66-.05,1.25c-.24,6.29.74,10.99,6.28,13.46l.64.29-.33.62c-2.36,4.51-6.66,7.72-12.11,9.05-1.79.44-3.64.65-5.48.65ZM63.94,109.49c1.55,2.78,3.89,4.88,7.12,6.41,10.16,4.83,21,.62,25.14-6.41-5.56-2.82-6.51-7.91-6.45-13.19-7.77,4.65-11.61,4.66-19.29,0,.1,5.87-1.13,10.38-6.52,13.18ZM114.4,106.26l-1.68-.57c-8.81-2.98-13.99-11.05-13.86-21.58.01-.99.18-3.38,1.47-4.15.84-.5,1.71-.81,2.55-1.12l1.19-.44v.95c-.02,8,2.24,14.97,6.71,20.73l.05.07,3.57,6.1ZM102.75,80.3c-.6.23-1.2.47-1.75.8-.46.27-.8,1.54-.82,3.03-.12,9.21,4.04,16.41,11.22,19.63l-1.69-2.89c-4.46-5.76-6.8-12.67-6.96-20.56ZM124.88,104.82c-6.54,0-12.52-4.29-16.14-9.6-.19-.28-.39-.56-.61-.85-.63-.87-1.28-1.77-1.66-2.71-1.6-3.93-2.25-8.43-2.05-14.16v-.19s.11-.16.11-.16c1.96-2.93,3.57-8.68.8-11.72l-.24-.27.09-.35c1.41-5.4,1.52-11.13.31-17.03l-.53-2.59,1.69,2.04c3.49,4.22,5.56,8.8,6.33,13.98.2,1.33-.3,2.8-.73,4.09-.07.21-.14.42-.2.62-1.07,4.15-1.46,8.3-1.18,12.64.2,7.85,4.02,14.88,10.47,19.33,2.36,1.62,5.09,2.62,8.46,3.05l-1.84-.43c-4.36-1.02-8.1-3.4-11.42-7.27-2.98-3.48-4.79-8-5.36-13.44-.61-5.82.36-11.09,1.28-14.5l2.44-9.04.04,4.81c.04,4.87.42,9.29.98,14.44,1.22,11.26,5.77,19.93,12.51,23.78l3.2,1.83c.38.03.76.05,1.16.06l2.21.08-1.89,1.15c-2.76,1.68-5.54,2.4-8.23,2.4ZM105.73,77.73c-.18,5.45.45,9.72,1.96,13.43.32.79.93,1.62,1.51,2.43.22.3.43.6.63.88,4.39,6.45,12.46,11.3,20.53,7.88-3.92-.41-7.06-1.5-9.77-3.36-6.8-4.69-10.83-12.11-11.04-20.35-.29-4.46.11-8.74,1.23-13.07.08-.24.15-.45.22-.67.39-1.16.83-2.46.68-3.48-.6-4.08-2.06-7.76-4.42-11.19.7,5.03.46,9.93-.71,14.6,1.29,1.59,1.8,3.83,1.48,6.5-.27,2.21-1.12,4.59-2.29,6.41ZM113.76,65.58l-.02.09c-2.22,8.2-2.38,19.52,3.8,26.73,2.05,2.39,4.2,4.15,6.58,5.35-5.08-4.74-8.48-12.52-9.51-22.07-.39-3.58-.69-6.82-.85-10.1ZM79.93,98.25c-1.53,0-3.03-.32-4.5-.97-7.28-3.17-12.73-9.57-14.95-17.56-1.22-4.65-1.8-9.27-2.29-13.6v-.05s0-.05,0-.05c.06-1.89.36-3.37.94-4.66,1.16-2.58,1.86-5.14,2.61-7.85l.15-.54c1.88-6.85,12.09-9.71,18.73-9.55,3.28.08,6.75.78,10.05,2.04,1.73.66,3.38,1.95,4.77,3.11,2.2,1.85,2.96,4.56,3.76,7.43.43,1.54.88,3.13,1.57,4.74.97,2.26,1.33,4.5,1.06,6.66-.5,4.07-1.2,8.15-2.14,12.48-.14.67-.45,1.39-.75,2.08-.13.31-.27.63-.39.94h0c-2.48,6.41-7.21,11.42-13.31,14.12-1.83.81-3.59,1.21-5.3,1.21ZM59.5,66.03c.48,4.27,1.05,8.82,2.24,13.36,2.11,7.59,7.29,13.68,14.2,16.69,2.78,1.21,5.64,1.13,8.75-.24,5.87-2.59,10.23-7.22,12.61-13.39h0c.13-.33.27-.65.41-.98.28-.67.55-1.3.67-1.84.93-4.28,1.62-8.33,2.12-12.36.24-1.95-.07-3.91-.96-5.98-.72-1.69-1.18-3.32-1.63-4.91-.78-2.79-1.46-5.19-3.34-6.78-1.31-1.1-2.85-2.3-4.39-2.89-3.16-1.21-6.48-1.88-9.6-1.96-6.21-.15-15.73,2.42-17.43,8.58l-.15.54c-.76,2.76-1.47,5.36-2.68,8.04-.51,1.13-.76,2.4-.82,4.11ZM60.26,79.97l-1.12-.37c-1.72-.57-3.25-2.06-4.31-4.2-1.32-2.64-1.71-5.86-.98-8.01.29-.86.87-1.54,1.64-1.92.55-.27,1.17-.36,1.77-.25l-.46-1.44c-.79-2.45-.99-4.75-1.17-7.51-.76-11.52,6.56-21.76,17.79-24.9,5.72-1.6,10.85-1.46,15.7.42l5.04,1.95.1.28c1.58,4.28.65,8.38-2.56,11.25l-.31.27-.38-.15c-8.39-3.41-17.48-2.8-24.93,1.66l-.34-.57.34.57c-3.43,2.06-4.45,5.4-5.42,9.55-.34,1.44-.91,2.83-1.46,4.17-.4.97-.81,1.97-1.14,3.01l-.48,1.51c.05.02.11.03.16.05l.41.14.03.44c.28,4.24.7,8.05,1.84,12.89l.27,1.15ZM56.74,66.5c-.24,0-.47.05-.69.16-.44.22-.78.62-.96,1.15-.61,1.81-.24,4.69.92,7,.64,1.29,1.47,2.3,2.39,2.94-.94-4.37-1.3-7.98-1.53-11.24-.04,0-.08,0-.13,0ZM80.95,31.59c-2.29,0-4.68.35-7.19,1.05-10.62,2.97-17.54,12.65-16.83,23.54.12,1.88.26,3.55.59,5.18.15-.37.3-.73.45-1.09.56-1.35,1.08-2.63,1.4-3.97.86-3.69,1.84-7.88,6.03-10.39h0c7.69-4.61,17.04-5.3,25.71-1.91,2.47-2.4,3.2-5.74,2-9.25l-4.48-1.74c-2.46-.95-5-1.43-7.67-1.43ZM100.06,79.76l.21-1.05c.97-4.91,1.54-8.93,1.86-13.01l.05-.6h.6c1.02-.04,1.99.34,2.7,1.05.79.77,1.23,1.91,1.23,3.11-.02,3.37-1.56,9.12-5.61,10.22l-1.03.28ZM103.39,66.47c-.3,3.56-.8,7.11-1.59,11.26,2.43-1.54,3.56-5.67,3.57-8.48h0c0-.84-.3-1.63-.83-2.16-.32-.32-.72-.53-1.15-.62ZM103.55,65c-.29,0-.57-.06-.77-.2-.73-.49-3.46-8.94-3.47-9.01-.76-4.61-3.04-7.79-6.97-9.72l-.87-.43.71-.65c2.67-2.45,3.56-5.67,2.73-9.84l-.34-1.68,1.38,1.02c6.23,4.61,9.84,11.6,10.17,19.68.13,3.64-.53,7.7-.93,9.8-.07.38-.35.69-.78.87-.24.1-.56.17-.86.17ZM93.74,45.31c3.8,2.15,6.11,5.6,6.88,10.26.13.81,2.37,6.92,2.96,8.1.12,0,.26-.03.35-.07.39-2.07,1.01-5.95.89-9.39-.29-7.09-3.23-13.29-8.34-17.63.36,3.53-.54,6.4-2.73,8.73ZM103.45,63.67h0ZM113.48,60.91l-.7-2.4c-1.55-5.34-4.29-10.03-8.15-13.96-.76-.78-1.28-1.74-1.79-2.67-.29-.54-.56-1.04-.87-1.5-4.24-6.27-10.8-10.2-18.49-11.06l-1.42-.16,1.04-.98c4.67-4.4,11.31-5.19,18.22-2.18,6.37,2.77,10.79,8.07,12.46,14.93,1.52,6.25,1.61,11.99.28,17.55l-.58,2.43ZM85.11,28.21c7.44,1.22,13.78,5.24,17.96,11.43.35.51.65,1.07.94,1.61.48.89.93,1.73,1.56,2.37h0c3.43,3.48,6,7.55,7.69,12.11.74-4.6.48-9.36-.76-14.49-1.57-6.44-5.72-11.42-11.7-14.03-5.87-2.56-11.5-2.18-15.68,1Z"/>
        </g>
        <g>
          <g>
            <path class="st0" d="M91.96,65.94c-.03,1.22.05,2.22-.36,2.73-.57.72-1.9.78-2.48.46-1.01-.55-1.03-1.6-1.02-2.95l-1.98,1.63c-.22.18-.88.15-1.03-.07-.66-.92,2.79-3.84,5.7-3.52s5.81,2.87,4.35,3.21c-.25.06-.8-.03-1.02-.16l-2.15-1.33Z"/>
            <path class="st0" d="M90,69.53c-.38,0-.74-.08-.98-.21-1.01-.55-1.13-1.56-1.13-2.68l-1.62,1.33c-.2.17-.56.19-.8.15-.18-.02-.42-.09-.55-.26-.13-.19-.23-.52.09-1.07.75-1.29,3.46-3.06,5.81-2.8,2.31.26,4.87,1.98,4.93,3,0,.15-.03.51-.56.64-.31.07-.92-.03-1.18-.19l-1.82-1.13c0,.09,0,.18,0,.27,0,.97-.02,1.73-.4,2.21-.41.51-1.13.73-1.77.73ZM88.33,65.71v.47c-.02,1.4.02,2.28.9,2.76.52.28,1.71.21,2.2-.41.29-.36.29-1.06.3-1.94,0-.21,0-.43,0-.66v-.38s2.49,1.53,2.49,1.53c.17.1.65.18.85.14.23-.05.22-.14.22-.18-.04-.66-2.26-2.34-4.54-2.59-2.1-.23-4.68,1.38-5.38,2.58-.15.26-.19.48-.11.59.08.1.58.14.71.02l2.35-1.93Z"/>
          </g>
          <g>
            <path class="st0" d="M72.08,66.22c.12,1.07.04,1.84-.39,2.38-.7.85-2.22.81-2.71.31-.78-.78-.79-1.66-.57-2.91l-2.46,1.37c-.23.13-.86.07-1.01-.13s.03-.79.22-.97c2.89-2.74,6.91-2.77,9.57.26.19.22.49.73.52.99.04.33-.87.5-1.13.31l-2.05-1.59Z"/>
            <path class="st0" d="M70.1,69.48c-.53,0-1.02-.16-1.28-.42-.74-.74-.85-1.56-.7-2.66l-2.06,1.15c-.32.18-1.07.11-1.29-.19-.25-.33,0-1.04.24-1.26,1.5-1.43,3.34-2.17,5.19-2.09,1.78.08,3.41.89,4.7,2.36.21.23.53.78.57,1.11.01.11,0,.31-.28.46-.29.17-.91.27-1.2.04l-1.65-1.29c.05.94-.1,1.57-.49,2.03-.36.44-.95.71-1.62.74-.04,0-.09,0-.13,0ZM68.71,65.57l-.08.46c-.22,1.22-.2,2.01.51,2.72.19.2.63.31,1.08.29.55-.03,1.02-.24,1.31-.58.37-.45.47-1.11.35-2.21l-.06-.52,2.46,1.92s.21.06.44.01c.21-.04.32-.12.33-.14-.03-.17-.3-.65-.47-.85-1.21-1.37-2.73-2.14-4.39-2.21-1.72-.08-3.46.62-4.87,1.97-.14.13-.25.58-.19.68.08.09.57.15.73.07l2.86-1.59Z"/>
          </g>
          <g>
            <path class="st0" d="M86.53,84.48c-5.85,3.36-13.49,1.15-13.51-.54,0-.29.79-.51,1.09-.37,2.44,1.16,5.16,1.33,7.83,1.02,3.72-.43,3.84-2.03,5.07-1.26.24.15-.23,1.01-.49,1.15Z"/>
            <path class="st0" d="M79.58,86.9c-2.48,0-4.65-.57-5.92-1.29-.86-.49-1.29-1.05-1.3-1.67,0-.18.06-.53.48-.79.41-.26,1.1-.4,1.56-.18,2.07.99,4.52,1.3,7.47.96,1.78-.21,2.65-.68,3.28-1.03.63-.35,1.29-.71,2.22-.13.25.15.38.42.38.74,0,.51-.47,1.31-.89,1.55h0c-2.35,1.35-4.95,1.85-7.28,1.85ZM73.95,84.22c.18.14.46.32.9.5,2.19.94,7.19,1.55,11.32-.8.02-.03.05-.06.08-.11-.1.04-.25.12-.47.24-.69.38-1.72.95-3.76,1.19-3.15.37-5.79.03-8.07-1.02ZM86.2,83.9s0,0,0,0h0Z"/>
          </g>
          <g>
            <path class="st0" d="M96.19,60.44c-.53,1.54-2.53-1.97-9.83.21-.26.08-.81-.08-.98-.19-.23-.14.15-.98.41-1.09,4.71-2.04,10.97-.58,10.4,1.07Z"/>
            <path class="st0" d="M95.72,61.5c-.39,0-.82-.14-1.18-.27-1.28-.43-3.65-1.24-8,.06-.53.16-1.29-.12-1.52-.27-.13-.08-.41-.32-.38-.83.03-.45.38-1.22.88-1.43,4.12-1.79,9.32-1.03,10.81.35.49.45.66,1.01.48,1.55h0c-.22.65-.63.84-1.09.84ZM90.92,59.25c1.91,0,3.2.44,4.05.72.18.06.39.13.55.17-.07-.08-.23-.22-.54-.37-1.63-.82-5.6-1.22-8.86.17-.01.02-.02.04-.04.06.05,0,.09.01.12,0,1.89-.56,3.44-.76,4.72-.76Z"/>
          </g>
          <g>
            <path class="st0" d="M74.18,60.9c-2.88-1.31-6.32-1.38-9.25-.05-4.03-1.4,6.05-4.28,9.97-.92.18.16-.36.65-.72.97Z"/>
            <path class="st0" d="M74.32,61.67l-.41-.17c-2.76-1.25-6.02-1.27-8.71-.05l-.24.11-.25-.09c-.88-.3-1.34-.75-1.38-1.32-.04-.58.36-1.08,1.19-1.49,2.13-1.06,7.87-1.76,10.81.76.17.14.26.35.27.57,0,.46-.37.85-.96,1.38l-.32.29ZM64.76,60.06s.09.05.15.08c2.85-1.2,6.21-1.21,9.13,0,0,0,0,0,0,0-1.81-1.2-4.7-1.25-6.75-.91-1.43.24-2.24.62-2.54.85Z"/>
          </g>
          <g>
            <path class="st0" d="M83,78.26c-2.12,1.39-6.02,1.03-6.25-.87-.03-.28.9-.54,1.16-.33,2.36,1.92,4.34-.68,5.39.13.21.16-.07.91-.3,1.07Z"/>
            <path class="st0" d="M79.89,79.77c-.83,0-1.63-.15-2.3-.45-.87-.4-1.4-1.06-1.5-1.84-.02-.17-.01-.6.53-.9.43-.24,1.24-.4,1.71-.02,1.13.92,2.08.56,3.09.17.74-.28,1.58-.6,2.29-.05.13.1.34.34.33.79-.02.45-.28,1.1-.67,1.35h0c-.95.62-2.24.95-3.47.95ZM82.6,77.72c-.21.05-.49.15-.72.24-.51.19-1.15.44-1.87.48.89-.02,1.84-.23,2.58-.7,0,0,0-.01.01-.02ZM77.54,77.65c.12.18.33.33.61.46.3.14.68.24,1.09.29-.53-.09-1.08-.31-1.65-.75-.01,0-.03,0-.04,0Z"/>
          </g>
          <g>
            <path class="st0" d="M82.41,89.04c-1.43.7-4.58.97-5.09-.68-.34-1.1,1.83.11,4.26-.32l.75-.13c.22-.04.28,1.03.08,1.13Z"/>
            <path class="st0" d="M79.81,90.24c-.66,0-1.3-.1-1.82-.32-.66-.28-1.11-.76-1.3-1.36-.15-.5,0-.81.14-.99.39-.45,1-.37,1.86-.25.78.11,1.75.25,2.77.07l.75-.13c.3-.05.71.07.89.61.09.27.29,1.43-.4,1.76h0c-.75.36-1.85.61-2.9.61ZM78.31,88.6c.06.03.12.07.2.1.67.29,1.75.26,2.66.06-1.02.1-1.95-.03-2.66-.13-.06,0-.13-.02-.19-.03ZM82.45,88.56h0,0Z"/>
          </g>
        </g>
      </g>
    </g>
  </g>
</svg>