<?xml version="1.0" encoding="UTF-8"?>
<svg id="Layer_1" xmlns="http://www.w3.org/2000/svg" version="1.1" viewBox="0 0 760 320">
  <!-- Generator: Adobe Illustrator 30.4.0, SVG Export Plug-In . SVG Version: 2.1.4 Build 226)  -->
  <defs>
    <style>
      .st0 {
        stroke: #5b6b82;
        stroke-width: 1.2px;
      }

      .st0, .st1, .st2, .st3 {
        fill: none;
      }

      .st1 {
        stroke: #e5e9f0;
        stroke-width: .6px;
      }

      .st4, .st5 {
        fill: #7286a8;
      }

      .st6 {
        font-size: 12px;
      }

      .st6, .st5, .st7, .st8, .st9, .st10, .st11 {
        isolation: isolate;
      }

      .st6, .st5, .st8, .st9 {
        font-family: Helvetica-Bold, Helvetica;
        font-weight: 700;
      }

      .st6, .st8 {
        fill: #1a3a6e;
      }

      .st5, .st9 {
        font-size: 11px;
      }

      .st2 {
        stroke: #dde3ec;
      }

      .st7 {
        font-family: Helvetica, Helvetica;
      }

      .st7, .st10, .st11 {
        fill: #5b6b82;
      }

      .st7, .st11 {
        font-size: 10px;
      }

      .st8 {
        letter-spacing: .22em;
      }

      .st8, .st10 {
        font-size: 13px;
      }

      .st9, .st12 {
        fill: #1f7a4a;
      }

      .st10, .st11 {
        font-family: TimesNewRomanPS-ItalicMT, 'Times New Roman';
        font-style: italic;
      }

      .st3 {
        stroke: #94a3b8;
        stroke-width: .8px;
      }
    </style>
  </defs>
  <text class="st8" transform="translate(20 22)"><tspan x="0" y="0">WEEKLY PERFORMANCE</tspan></text>
  <line class="st2" x1="20" y1="30" x2="740" y2="30"/>
  <text class="st10" transform="translate(20 48)"><tspan x="0" y="0">Friday-to-Friday change. Equity indices = price return. 10-Year Treasury = yield change in basis points.</tspan></text>
  <g>
    <line class="st1" x1="160" y1="70" x2="160" y2="270"/>
    <line class="st1" x1="272" y1="70" x2="272" y2="270"/>
    <line class="st1" x1="384" y1="70" x2="384" y2="270"/>
    <line class="st1" x1="496" y1="70" x2="496" y2="270"/>
    <line class="st1" x1="608" y1="70" x2="608" y2="270"/>
    <line class="st1" x1="720" y1="70" x2="720" y2="270"/>
  </g>
  <line class="st0" x1="160" y1="70" x2="160" y2="270"/>
  <line class="st3" x1="140" y1="270" x2="740" y2="270"/>
  <g>
    <text class="st7" transform="translate(148.6 288)"><tspan x="0" y="0">0.0%</tspan></text>
    <text class="st7" transform="translate(260.6 288)"><tspan x="0" y="0">1.0%</tspan></text>
    <text class="st7" transform="translate(372.6 288)"><tspan x="0" y="0">2.0%</tspan></text>
    <text class="st7" transform="translate(484.6 288)"><tspan x="0" y="0">3.0%</tspan></text>
    <text class="st7" transform="translate(596.6 288)"><tspan x="0" y="0">4.0%</tspan></text>
    <text class="st7" transform="translate(708.6 288)"><tspan x="0" y="0">5.0%</tspan></text>
  </g>
  <g>
    <text class="st6" transform="translate(88.65 96)"><tspan x="0" y="0">Nasdaq</tspan></text>
    <text class="st6" transform="translate(84.18 142)"><tspan x="0" y="0">S&amp;P 500</tspan></text>
    <text class="st6" transform="translate(106.67 188)"><tspan x="0" y="0">Dow</tspan></text>
    <text class="st6" transform="translate(80.19 234)"><tspan x="0" y="0">10-Yr Yld</tspan></text>
  </g>
  <rect class="st12" x="160" y="80" width="505.12" height="26"/>
  <text class="st9" transform="translate(672 98)"><tspan x="0" y="0">+4.51%</tspan></text>
  <rect class="st12" x="160" y="126" width="260.96" height="26"/>
  <text class="st9" transform="translate(428 144)"><tspan x="0" y="0">+2.33%</tspan></text>
  <rect class="st12" x="160" y="172" width="24.64" height="26"/>
  <text class="st9" transform="translate(192 190)"><tspan x="0" y="0">+0.22%</tspan></text>
  <rect class="st4" x="148" y="218" width="12" height="26"/>
  <text class="st5" transform="translate(166 236)"><tspan x="0" y="0">−1.4 bps</tspan></text>
  <text class="st11" transform="translate(388.22 312)"><tspan x="0" y="0">Source: Bloomberg. Equity indices = price return. 10-Yr = yield change in basis points.</tspan></text>
</svg>